{
  "accessors": [
    {
      "bufferView": 2,
      "componentType": 5126,
      "count": 3750,
      "max": [
        0.6170225143432617,
        1.0749162435531616,
        0.2702288329601288
      ],
      "min": [
        -0.6497814059257507,
        -0.9871313571929932,
        -0.21447080373764038
      ],
      "type": "VEC3"
    },
    {
      "bufferView": 2,
      "byteOffset": 45000,
      "componentType": 5126,
      "count": 3750,
      "max": [
        1.0,
        1.0,
        1.0
      ],
      "min": [
        -1.0,
        -1.0,
        -1.0
      ],
      "type": "VEC3"
    },
    {
      "bufferView": 3,
      "componentType": 5126,
      "count": 3750,
      "max": [
        1.0,
        1.0,
        1.0,
        1.0
      ],
      "min": [
        -1.0,
        -1.0,
        -1.0,
        1.0
      ],
      "type": "VEC4"
    },
    {
      "bufferView": 1,
      "componentType": 5126,
      "count": 3750,
      "max": [
        0.9983136653900146,
        0.998245358467102
      ],
      "min": [
        0.0018696002662181854,
        0.004602544009685516
      ],
      "type": "VEC2"
    },
    {
      "bufferView": 1,
      "byteOffset": 30000,
      "componentType": 5126,
      "count": 3750,
      "max": [
        0.9983136653900146,
        0.998245358467102
      ],
      "min": [
        0.0018696002662181854,
        0.004602544009685516
      ],
      "type": "VEC2"
    },
    {
      "bufferView": 1,
      "byteOffset": 60000,
      "componentType": 5126,
      "count": 3750,
      "max": [
        0.9983136653900146,
        0.998245358467102
      ],
      "min": [
        0.0018696002662181854,
        0.004602544009685516
      ],
      "type": "VEC2"
    },
    {
      "bufferView": 1,
      "byteOffset": 90000,
      "componentType": 5126,
      "count": 3750,
      "max": [
        0.9983136653900146,
        0.998245358467102
      ],
      "min": [
        0.0018696002662181854,
        0.004602544009685516
      ],
      "type": "VEC2"
    },
    {
      "bufferView": 1,
      "byteOffset": 120000,
      "componentType": 5126,
      "count": 3750,
      "max": [
        0.9983136653900146,
        0.998245358467102
      ],
      "min": [
        0.0018696002662181854,
        0.004602544009685516
      ],
      "type": "VEC2"
    },
    {
      "bufferView": 0,
      "componentType": 5125,
      "count": 10176,
      "type": "SCALAR"
    },
    {
      "bufferView": 2,
      "byteOffset": 90000,
      "componentType": 5126,
      "count": 4,
      "max": [
        0.32120129466056824,
        0.8094053268432617,
        0.1625135838985443
      ],
      "min": [
        -0.3521539270877838,
        0.19582585990428925,
        0.16251352429389954
      ],
      "type": "VEC3"
    },
    {
      "bufferView": 2,
      "byteOffset": 90048,
      "componentType": 5126,
      "count": 4,
      "max": [
        0.0,
        0.0,
        1.0
      ],
      "min": [
        0.0,
        0.0,
        1.0
      ],
      "type": "VEC3"
    },
    {
      "bufferView": 3,
      "byteOffset": 60000,
      "componentType": 5126,
      "count": 4,
      "max": [
        1.0,
        0.0,
        -0.0,
        1.0
      ],
      "min": [
        1.0,
        0.0,
        -0.0,
        1.0
      ],
      "type": "VEC4"
    },
    {
      "bufferView": 1,
      "byteOffset": 150000,
      "componentType": 5126,
      "count": 4,
      "max": [
        0.9427787065505981,
        0.975033700466156
      ],
      "min": [
        0.0749695897102356,
        0.01729947328567505
      ],
      "type": "VEC2"
    },
    {
      "bufferView": 1,
      "byteOffset": 150032,
      "componentType": 5126,
      "count": 4,
      "max": [
        0.9427787065505981,
        0.975033700466156
      ],
      "min": [
        0.0749695897102356,
        0.01729947328567505
      ],
      "type": "VEC2"
    },
    {
      "bufferView": 1,
      "byteOffset": 150064,
      "componentType": 5126,
      "count": 4,
      "max": [
        0.9427787065505981,
        0.975033700466156
      ],
      "min": [
        0.0749695897102356,
        0.01729947328567505
      ],
      "type": "VEC2"
    },
    {
      "bufferView": 1,
      "byteOffset": 150096,
      "componentType": 5126,
      "count": 4,
      "max": [
        0.9427787065505981,
        0.975033700466156
      ],
      "min": [
        0.0749695897102356,
        0.01729947328567505
      ],
      "type": "VEC2"
    },
    {
      "bufferView": 0,
      "byteOffset": 40704,
      "componentType": 5125,
      "count": 6,
      "type": "SCALAR"
    }
  ],
  "asset": {
    "extras": {
      "author": "AtTheSpeedOf (https://sketchfab.com/AtTheSpeedOf)",
      "license": "CC-BY-NC-4.0 (http://creativecommons.org/licenses/by-nc/4.0/)",
      "source": "https://sketchfab.com/3d-models/yellow-gameboy-7fb53edae00d4a8b98d06383fc1280ad",
      "title": "yellow gameboy"
    },
    "generator": "Sketchfab-12.66.0",
    "version": "2.0"
  },
  "bufferViews": [
    {
      "buffer": 0,
      "byteLength": 40728,
      "name": "floatBufferViews",
      "target": 34963
    },
    {
      "buffer": 0,
      "byteLength": 150128,
      "byteOffset": 40728,
      "byteStride": 8,
      "name": "floatBufferViews",
      "target": 34962
    },
    {
      "buffer": 0,
      "byteLength": 90096,
      "byteOffset": 190856,
      "byteStride": 12,
      "name": "floatBufferViews",
      "target": 34962
    },
    {
      "buffer": 0,
      "byteLength": 60064,
      "byteOffset": 280952,
      "byteStride": 16,
      "name": "floatBufferViews",
      "target": 34962
    }
  ],
  "buffers": [
    {
      "byteLength": 341016,
      "uri": "scene.bin"
    }
  ],
  "images": [
    {
      "uri": "textures/gameboy_main_material_baseColor.png"
    },
    {
      "uri": "textures/gameboy_main_material_metallicRoughness.png"
    },
    {
      "uri": "textures/gameboy_main_material_emissive.png"
    },
    {
      "uri": "textures/gameboy_main_material_normal.png"
    },
    {
      "uri": "textures/gameboy_screen_baseColor.png"
    },
    {
      "uri": "textures/gameboy_screen_metallicRoughness.png"
    },
    {
      "uri": "textures/gameboy_screen_normal.png"
    }
  ],
  "materials": [
    {
      "emissiveFactor": [
        1.0,
        1.0,
        1.0
      ],
      "emissiveTexture": {
        "index": 2,
        "texCoord": 2
      },
      "name": "gameboy_main_material",
      "normalTexture": {
        "index": 3,
        "texCoord": 3
      },
      "pbrMetallicRoughness": {
        "baseColorTexture": {
          "index": 0
        },
        "metallicRoughnessTexture": {
          "index": 1,
          "texCoord": 1
        }
      }
    },
    {
      "doubleSided": true,
      "name": "gameboy_screen",
      "normalTexture": {
        "index": 6
      },
      "pbrMetallicRoughness": {
        "baseColorTexture": {
          "index": 4
        },
        "metallicFactor": 0.0,
        "metallicRoughnessTexture": {
          "index": 5
        }
      }
    }
  ],
  "meshes": [
    {
      "name": "Object_0",
      "primitives": [
        {
          "attributes": {
            "NORMAL": 1,
            "POSITION": 0,
            "TANGENT": 2,
            "TEXCOORD_0": 3,
            "TEXCOORD_1": 4,
            "TEXCOORD_2": 5,
            "TEXCOORD_3": 6,
            "TEXCOORD_4": 7
          },
          "indices": 8,
          "material": 0,
          "mode": 4
        }
      ]
    },
    {
      "name": "Object_1",
      "primitives": [
        {
          "attributes": {
            "NORMAL": 10,
            "POSITION": 9,
            "TANGENT": 11,
            "TEXCOORD_0": 12,
            "TEXCOORD_1": 13,
            "TEXCOORD_2": 14,
            "TEXCOORD_3": 15
          },
          "indices": 16,
          "material": 1,
          "mode": 4
        }
      ]
    }
  ],
  "nodes": [
    {
      "children": [
        1
      ],
      "matrix": [
        1.0,
        0.0,
        0.0,
        0.0,
        0.0,
        2.220446049250313e-16,
        -1.0,
        0.0,
        0.0,
        1.0,
        2.220446049250313e-16,
        0.0,
        0.0,
        -1.8488927466117464e-32,
        8.326672684688674e-17,
        1.0
      ],
      "name": "Sketchfab_model"
    },
    {
      "children": [
        2
      ],
      "name": "root"
    },
    {
      "children": [
        3
      ],
      "matrix": [
        1.0,
        0.0,
        0.0,
        0.0,
        0.0,
        2.220446049250313e-16,
        1.0,
        0.0,
        0.0,
        -1.0,
        2.220446049250313e-16,
        0.0,
        0.0,
        0.0,
        0.0,
        1.0
      ],
      "name": "GLTF_SceneRootNode"
    },
    {
      "children": [
        4,
        5
      ],
      "name": "Cube.010_2"
    },
    {
      "mesh": 0,
      "name": "Object_4"
    },
    {
      "mesh": 1,
      "name": "Object_5"
    }
  ],
  "samplers": [
    {
      "magFilter": 9729,
      "minFilter": 9987,
      "wrapS": 10497,
      "wrapT": 10497
    }
  ],
  "scene": 0,
  "scenes": [
    {
      "name": "Sketchfab_Scene",
      "nodes": [
        0
      ]
    }
  ],
  "textures": [
    {
      "sampler": 0,
      "source": 0
    },
    {
      "sampler": 0,
      "source": 1
    },
    {
      "sampler": 0,
      "source": 2
    },
    {
      "sampler": 0,
      "source": 3
    },
    {
      "sampler": 0,
      "source": 4
    },
    {
      "sampler": 0,
      "source": 5
    },
    {
      "sampler": 0,
      "source": 6
    }
  ]
}
